<svg width="16" height="16" viewBox="0 0 16 16" fill="none" xmlns="http://www.w3.org/2000/svg">
<path d="M6.6625 9.50635L6.11875 10.1188C5.69986 10.537 5.16641 10.8216 4.58583 10.9367C4.00524 11.0518 3.40356 10.9922 2.85683 10.7655C2.3101 10.5387 1.84285 10.155 1.51412 9.66279C1.1854 9.17059 1.00995 8.59198 1.00995 8.0001C1.00995 7.40821 1.1854 6.82961 1.51412 6.3374C1.84285 5.8452 2.3101 5.46148 2.85683 5.23474C3.40356 5.00799 4.00524 4.9484 4.58583 5.06349C5.16641 5.17858 5.69986 5.46319 6.11875 5.88135L9.88125 10.1188C10.3001 10.537 10.8336 10.8216 11.4142 10.9367C11.9948 11.0518 12.5964 10.9922 13.1432 10.7655C13.6899 10.5387 14.1571 10.155 14.4859 9.66279C14.8146 9.17059 14.99 8.59198 14.99 8.0001C14.99 7.40821 14.8146 6.82961 14.4859 6.3374C14.1571 5.8452 13.6899 5.46148 13.1432 5.23474C12.5964 5.00799 11.9948 4.9484 11.4142 5.06349C10.8336 5.17858 10.3001 5.46319 9.88125 5.88135L9.3375 6.49385" stroke="#8230C5" stroke-width="1.2" stroke-linecap="round" stroke-linejoin="round"/>
</svg>
