<svg width="76" height="29" viewBox="0 0 76 29" fill="none" xmlns="http://www.w3.org/2000/svg">
<path d="M6.6565 17.3978H17.1762V23H0.151729V0.435616H6.6565V17.3978ZM17.2725 14.5967C17.2725 8.71441 21.5052 5.7577 26.4849 5.7577C31.4647 5.7577 35.6974 8.71441 35.6974 14.5967C35.6974 20.479 31.4647 23.4046 26.4849 23.4046C21.5052 23.4046 17.2725 20.479 17.2725 14.5967ZM23.6839 14.5967C23.6839 17.709 24.8977 18.7672 26.4849 18.7672C28.0722 18.7672 29.286 17.709 29.286 14.5967C29.286 11.4844 28.0722 10.3951 26.4849 10.3951C24.8977 10.3951 23.6839 11.4844 23.6839 14.5967ZM48.8458 20.0122C48.0989 21.226 46.2626 22.4398 43.8038 22.4398C40.069 22.4398 36.4899 19.9188 36.4899 14.1299C36.4899 8.34093 40.069 5.88219 43.8038 5.88219C46.2626 5.88219 48.0989 6.94038 48.8458 8.27868V6.25567H55.0705V20.4479C55.0705 26.5481 50.651 28.8512 45.7646 28.8512C40.7226 28.8512 38.046 26.797 37.3302 23.4046H43.088C43.2747 24.3383 44.0528 24.9919 45.7024 24.9919C47.4764 24.9919 48.8458 24.1204 48.8458 21.6928V20.0122ZM46.0447 10.5196C44.2707 10.5196 42.9946 11.7645 42.9946 14.1299C42.9946 16.5264 44.2707 17.7713 46.0447 17.7713C47.7876 17.7713 49.0637 16.6508 49.0637 14.1299C49.0637 11.64 47.7876 10.5196 46.0447 10.5196ZM56.7103 14.5967C56.7103 8.71441 60.943 5.7577 65.9228 5.7577C70.9025 5.7577 75.1353 8.71441 75.1353 14.5967C75.1353 20.479 70.9025 23.4046 65.9228 23.4046C60.943 23.4046 56.7103 20.479 56.7103 14.5967ZM63.1217 14.5967C63.1217 17.709 64.3355 18.7672 65.9228 18.7672C67.5101 18.7672 68.7239 17.709 68.7239 14.5967C68.7239 11.4844 67.5101 10.3951 65.9228 10.3951C64.3355 10.3951 63.1217 11.4844 63.1217 14.5967Z" fill="black"/>
</svg>
