<svg width="23" height="23" viewBox="0 0 23 23" fill="none" xmlns="http://www.w3.org/2000/svg">
<path fill-rule="evenodd" clip-rule="evenodd" d="M6.23633 3.28943C6.23633 5.2779 4.62436 6.88987 2.63589 6.88987C4.62436 6.88987 6.23633 8.50184 6.23633 10.4903C6.23633 8.50184 7.8483 6.88987 9.83677 6.88987C7.8483 6.88987 6.23633 5.2779 6.23633 3.28943Z" fill="#B470EB" stroke="#B470EB" stroke-width="1.07968" stroke-linecap="round" stroke-linejoin="round"/>
<path fill-rule="evenodd" clip-rule="evenodd" d="M16.1375 14.0907C16.1375 11.6051 14.1226 9.59015 11.637 9.59015C14.1226 9.59015 16.1375 7.57518 16.1375 5.0896C16.1375 7.57518 18.1525 9.59015 20.6381 9.59015C18.1525 9.59015 16.1375 11.6051 16.1375 14.0907Z" fill="#B470EB" stroke="#B470EB" stroke-width="1.07968" stroke-linecap="round" stroke-linejoin="round"/>
<path d="M16.1375 14.0907V14.9908" stroke="#B470EB" stroke-width="1.07968" stroke-linecap="round" stroke-linejoin="round"/>
<path d="M16.1375 5.08968V4.18958" stroke="#B470EB" stroke-width="1.07968" stroke-linecap="round" stroke-linejoin="round"/>
<path d="M9.83677 19.4915V20.3916" stroke="#B470EB" stroke-width="1.07968" stroke-linecap="round" stroke-linejoin="round"/>
<path d="M9.83677 13.1906V12.2905" stroke="#B470EB" stroke-width="1.07968" stroke-linecap="round" stroke-linejoin="round"/>
<path d="M6.23632 10.4902V11.3903" stroke="#B470EB" stroke-width="1.07968" stroke-linecap="round" stroke-linejoin="round"/>
<path d="M6.23632 2.3894V3.28951" stroke="#B470EB" stroke-width="1.07968" stroke-linecap="round" stroke-linejoin="round"/>
<path fill-rule="evenodd" clip-rule="evenodd" d="M9.83675 12.7406C9.83675 14.7291 8.22478 16.341 6.23631 16.341C8.22478 16.341 9.83675 17.953 9.83675 19.9415C9.83675 17.953 11.4487 16.341 13.4372 16.341C11.4487 16.341 9.83675 14.7291 9.83675 12.7406Z" fill="#B470EB" stroke="#B470EB" stroke-width="1.07968" stroke-linecap="round" stroke-linejoin="round"/>
</svg>
